<?xml version="1.0" encoding="UTF-8" standalone="no"?>
<!-- Created with matplotlib (http://matplotlib.org/) -->

<svg
   xmlns:dc="http://purl.org/dc/elements/1.1/"
   xmlns:cc="http://creativecommons.org/ns#"
   xmlns:rdf="http://www.w3.org/1999/02/22-rdf-syntax-ns#"
   xmlns:svg="http://www.w3.org/2000/svg"
   xmlns="http://www.w3.org/2000/svg"
   xmlns:sodipodi="http://sodipodi.sourceforge.net/DTD/sodipodi-0.dtd"
   xmlns:inkscape="http://www.inkscape.org/namespaces/inkscape"
   height="156.41153pt"
   version="1.1"
   viewBox="0 0 247.83076 156.41153"
   width="247.83076pt"
   id="svg2"
   inkscape:version="0.91 r13725"
   sodipodi:docname="logo.svg">
  <metadata
     id="metadata344">
    <rdf:RDF>
      <cc:Work
         rdf:about="">
        <dc:format>image/svg+xml</dc:format>
        <dc:type
           rdf:resource="http://purl.org/dc/dcmitype/StillImage" />
        <dc:title></dc:title>
      </cc:Work>
    </rdf:RDF>
  </metadata>
  <sodipodi:namedview
     pagecolor="#ffffff"
     bordercolor="#666666"
     borderopacity="1"
     objecttolerance="10"
     gridtolerance="10"
     guidetolerance="10"
     inkscape:pageopacity="0"
     inkscape:pageshadow="2"
     inkscape:window-width="2421"
     inkscape:window-height="1425"
     id="namedview342"
     showgrid="false"
     fit-margin-top="30"
     fit-margin-left="30"
     fit-margin-bottom="30"
     fit-margin-right="30"
     inkscape:zoom="2.59"
     inkscape:cx="101.90574"
     inkscape:cy="97.751254"
     inkscape:window-x="75"
     inkscape:window-y="34"
     inkscape:window-maximized="0"
     inkscape:current-layer="svg2" />
  <defs
     id="defs4"
     style="stroke-linecap:butt;stroke-linejoin:round">
    <style
       type="text/css"
       id="style6">
*{stroke-linecap:butt;stroke-linejoin:round;}
  </style>
  </defs>
  <g
     id="g4322"
     style="opacity:0.503">
    <g
       transform="translate(-174.32305,-142.28945)"
       style="stroke-linecap:butt;stroke-linejoin:round"
       id="line2d_1">
      <path
         inkscape:connector-curvature="0"
         id="path17"
         style="fill:none;stroke:#000000;stroke-width:15;stroke-linecap:round;stroke-linejoin:round"
         d="m 252.32,179.792 6.484,0.11 6.467,0.33 6.435,0.547 6.387,0.762 6.488,1.001 6.405,1.217 6.305,1.426 6.189,1.627 6.06,1.819 6.065,2.054 5.899,2.233 5.719,2.397 5.664,2.615 5.451,2.756 5.351,2.952 5.226,3.138 5.072,3.309 4.892,3.463 4.687,3.593 4.458,3.699 4.204,3.774 4.009,3.893 3.773,3.97 2.189,2.458 0,0"
         clip-path="url(#p767a5060e4)" />
    </g>
    <g
       transform="translate(-174.32305,-142.28945)"
       style="stroke-linecap:butt;stroke-linejoin:round"
       id="line2d_2">
      <path
         inkscape:connector-curvature="0"
         id="path20"
         style="fill:none;stroke:#000000;stroke-width:15;stroke-linecap:round;stroke-linejoin:round"
         d="m 271.238,184.455 6.248,1.529 6.126,1.726 6.14,1.963 5.98,2.149 5.808,2.32 5.76,2.541 5.552,2.692 5.46,2.895 5.22,3.015 5.086,3.191 4.926,3.351 4.739,3.493 4.529,3.61 4.382,3.78 4.111,3.838 3.896,3.938 3.706,4.062 3.46,4.12 3.262,4.23 3.057,4.326 2.445,3.746 0,0"
         clip-path="url(#p767a5060e4)" />
    </g>
    <g
       transform="translate(-174.32305,-142.28945)"
       style="stroke-linecap:butt;stroke-linejoin:round"
       id="line2d_3">
      <path
         inkscape:connector-curvature="0"
         id="path23"
         style="fill:none;stroke:#000000;stroke-width:15;stroke-linecap:round;stroke-linejoin:round"
         d="m 285.822,197.375 5.496,2.729 5.4,2.927 5.276,3.117 5.013,3.216 4.85,3.37 4.66,3.505 4.539,3.695 4.289,3.778 4.095,3.905 3.861,3.991 3.654,4.098 3.39,4.133 3.218,4.277 3.054,4.434 3.078,4.874 4.012,6.384 0.171,0.217 0,0"
         clip-path="url(#p767a5060e4)" />
    </g>
    <g
       transform="translate(-174.32305,-142.28945)"
       style="stroke-linecap:butt;stroke-linejoin:round"
       id="line2d_4">
      <path
         inkscape:connector-curvature="0"
         id="path26"
         style="fill:none;stroke:#000000;stroke-width:15;stroke-linecap:round;stroke-linejoin:round"
         d="m 292.731,215.593 4.504,3.612 4.356,3.78 4.086,3.836 3.869,3.932 3.678,4.053 3.433,4.109 3.233,4.213 3.067,4.363 3.012,4.675 5.089,8.018 0.774,0.73 0.589,0.269 0.513,-0.009 0.522,-0.239 0.622,-0.547 0.317,-0.363 0,0"
         clip-path="url(#p767a5060e4)" />
    </g>
    <g
       transform="translate(-174.32305,-142.28945)"
       style="stroke-linecap:butt;stroke-linejoin:round"
       id="line2d_5">
      <path
         inkscape:connector-curvature="0"
         id="path29"
         style="fill:none;stroke:#000000;stroke-width:15;stroke-linecap:round;stroke-linejoin:round"
         d="m 290.383,234.935 3.474,4.173 3.258,4.265 3.076,4.396 3.029,4.728 4.789,7.574 0.797,0.791 0.592,0.304 0.513,0.023 0.52,-0.209 0.602,-0.497 0.817,-0.993 1.316,-2.002 3.976,-6.518 0,0"
         clip-path="url(#p767a5060e4)" />
    </g>
    <g
       transform="translate(-174.32305,-142.28945)"
       style="stroke-linecap:butt;stroke-linejoin:round"
       id="line2d_6">
      <path
         inkscape:connector-curvature="0"
         id="path32"
         style="fill:none;stroke:#000000;stroke-width:15;stroke-linecap:round;stroke-linejoin:round"
         d="m 279.314,250.97 3.936,6.452 1.63,2.432 0.857,0.919 0.624,0.368 0.513,0.06 0.505,-0.164 0.581,-0.437 0.77,-0.885 1.179,-1.742 8.55,-13.378 3.156,-4.238 3.392,-4.178 1.067,-1.244 0,0"
         clip-path="url(#p767a5060e4)" />
    </g>
    <g
       transform="translate(-174.32305,-142.28945)"
       style="stroke-linecap:butt;stroke-linejoin:round"
       id="line2d_7">
      <path
         inkscape:connector-curvature="0"
         id="path35"
         style="fill:none;stroke:#000000;stroke-width:15;stroke-linecap:round;stroke-linejoin:round"
         d="m 262.062,260.025 0.815,0.822 0.606,0.317 0.513,0.026 0.52,-0.205 0.601,-0.494 0.817,-0.989 1.293,-1.965 7.047,-11.185 3.129,-4.35 3.315,-4.22 3.494,-4.088 3.722,-4.012 3.976,-3.953 4.19,-3.846 4.362,-3.701 3.264,-2.589 0,0"
         clip-path="url(#p767a5060e4)" />
    </g>
    <g
       transform="translate(-174.32305,-142.28945)"
       style="stroke-linecap:butt;stroke-linejoin:round"
       id="line2d_8">
      <path
         inkscape:connector-curvature="0"
         id="path38"
         style="fill:none;stroke:#000000;stroke-width:15;stroke-linecap:round;stroke-linejoin:round"
         d="m 242.578,260.025 1.019,-1.423 2.057,-3.343 3.888,-6.256 3.077,-4.503 3.169,-4.246 3.342,-4.111 3.606,-4.081 3.815,-3.98 4.05,-3.899 4.244,-3.777 4.398,-3.618 4.612,-3.512 4.804,-3.381 4.969,-3.23 5.235,-3.134 5.36,-2.948 5.458,-2.752 0.954,-0.456 0,0"
         clip-path="url(#p767a5060e4)" />
    </g>
    <g
       transform="translate(-174.32305,-142.28945)"
       style="stroke-linecap:butt;stroke-linejoin:round"
       id="line2d_9">
      <path
         inkscape:connector-curvature="0"
         id="path41"
         style="fill:none;stroke:#000000;stroke-width:15;stroke-linecap:round;stroke-linejoin:round"
         d="m 225.326,250.97 3.061,-4.648 3.133,-4.353 3.26,-4.151 3.49,-4.087 3.719,-4.011 3.972,-3.952 4.186,-3.845 4.359,-3.701 4.591,-3.605 4.8,-3.481 4.984,-3.335 5.141,-3.171 5.273,-2.991 5.51,-2.867 5.599,-2.66 5.804,-2.507 5.847,-2.282 6.018,-2.108 6.018,-1.875 6.151,-1.686 4.977,-1.199 0,0"
         clip-path="url(#p767a5060e4)" />
    </g>
    <g
       transform="translate(-174.32305,-142.28945)"
       style="stroke-linecap:butt;stroke-linejoin:round"
       id="line2d_10">
      <path
         inkscape:connector-curvature="0"
         id="path44"
         style="fill:none;stroke:#000000;stroke-width:15;stroke-linecap:round;stroke-linejoin:round"
         d="m 214.258,234.935 3.665,-4.049 3.855,-3.929 4.073,-3.835 4.343,-3.779 4.492,-3.613 4.704,-3.498 4.892,-3.36 5.053,-3.202 5.19,-3.029 5.43,-2.911 5.525,-2.71 5.734,-2.562 5.784,-2.341 5.958,-2.172 6.12,-1.988 6.108,-1.752 6.233,-1.556 6.342,-1.352 6.437,-1.14 6.347,-0.901 6.405,-0.689 6.448,-0.473 6.474,-0.254 4.266,-0.048 0,0"
         clip-path="url(#p767a5060e4)" />
    </g>
    <g
       transform="translate(-174.32305,-142.28945)"
       style="stroke-linecap:butt;stroke-linejoin:round"
       id="line2d_11">
      <path
         inkscape:connector-curvature="0"
         id="path47"
         style="fill:none;stroke:#000000;stroke-width:15;stroke-linecap:round;stroke-linejoin:round"
         d="m 211.909,215.593 4.716,-3.496 4.903,-3.357 5.064,-3.199 5.2,-3.024 5.441,-2.906 5.534,-2.703 5.742,-2.556 5.792,-2.334 5.966,-2.164 5.971,-1.933 6.111,-1.748 6.235,-1.552 6.344,-1.348 6.439,-1.136 6.347,-0.896 6.407,-0.685 6.448,-0.469 6.475,-0.25 6.485,-0.03 6.48,0.189 6.457,0.409 6.419,0.625 6.366,0.839 6.461,1.077 6.371,1.292 0.971,0.217 0,0"
         clip-path="url(#p767a5060e4)" />
    </g>
    <g
       transform="translate(-174.32305,-142.28945)"
       style="stroke-linecap:butt;stroke-linejoin:round"
       id="line2d_12">
      <path
         inkscape:connector-curvature="0"
         id="path50"
         style="fill:none;stroke:#000000;stroke-width:15;stroke-linecap:round;stroke-linejoin:round"
         d="m 218.818,197.375 5.707,-2.582 5.759,-2.364 5.935,-2.196 6.099,-2.014 6.089,-1.778 6.216,-1.585 6.328,-1.381 6.424,-1.17 6.337,-0.931 6.397,-0.72 6.443,-0.505 6.472,-0.286 6.484,-0.066 6.482,0.153 6.462,0.373 6.427,0.589 6.375,0.804 6.474,1.043 6.387,1.258 6.284,1.465 6.165,1.665 6.033,1.855 6.035,2.088 5.866,2.265 5.825,2.49 3.315,1.53 0,0"
         clip-path="url(#p767a5060e4)" />
    </g>
    <g
       transform="translate(-174.32305,-142.28945)"
       style="stroke-linecap:butt;stroke-linejoin:round"
       id="line2d_13">
      <path
         inkscape:connector-curvature="0"
         id="path53"
         style="fill:none;stroke:#000000;stroke-width:15;stroke-linecap:round;stroke-linejoin:round"
         d="m 233.402,184.455 6.357,-1.324 6.448,-1.111 6.355,-0.872 6.412,-0.659 6.453,-0.443 6.477,-0.224 6.485,-0.004 6.478,0.215 6.453,0.435 6.414,0.65 6.358,0.864 6.452,1.103 6.36,1.315 6.252,1.522 6.131,1.718 6.145,1.956 5.987,2.142 5.815,2.314 5.767,2.536 5.56,2.686 5.468,2.89 5.229,3.012 5.096,3.187 4.935,3.349 4.749,3.49 0.509,0.391 0,0"
         clip-path="url(#p767a5060e4)" />
    </g>
  </g>
  <g
     id="g4294"
     style="stroke-linecap:butt;stroke-linejoin:round">
    <g
       transform="translate(-174.32305,-142.28945)"
       style="stroke-linecap:butt;stroke-linejoin:round"
       id="line2d_14">
      <path
         inkscape:connector-curvature="0"
         id="path56"
         style="fill:none;stroke:#ffffff;stroke-width:4;stroke-linecap:round;stroke-linejoin:round"
         d="m 252.32,179.792 6.484,0.11 6.467,0.33 6.435,0.547 6.387,0.762 6.488,1.001 6.405,1.217 6.305,1.426 6.189,1.627 6.06,1.819 6.065,2.054 5.899,2.233 5.719,2.397 5.664,2.615 5.451,2.756 5.351,2.952 5.226,3.138 5.072,3.309 4.892,3.463 4.687,3.593 4.458,3.699 4.204,3.774 4.009,3.893 3.773,3.97 2.189,2.458 0,0"
         clip-path="url(#p767a5060e4)" />
    </g>
    <g
       transform="translate(-174.32305,-142.28945)"
       style="stroke-linecap:butt;stroke-linejoin:round"
       id="line2d_15">
      <path
         inkscape:connector-curvature="0"
         id="path59"
         style="fill:none;stroke:#ffffff;stroke-width:4;stroke-linecap:round;stroke-linejoin:round"
         d="m 271.238,184.455 6.248,1.529 6.126,1.726 6.14,1.963 5.98,2.149 5.808,2.32 5.76,2.541 5.552,2.692 5.46,2.895 5.22,3.015 5.086,3.191 4.926,3.351 4.739,3.493 4.529,3.61 4.382,3.78 4.111,3.838 3.896,3.938 3.706,4.062 3.46,4.12 3.262,4.23 3.057,4.326 2.445,3.746 0,0"
         clip-path="url(#p767a5060e4)" />
    </g>
    <g
       transform="translate(-174.32305,-142.28945)"
       style="stroke-linecap:butt;stroke-linejoin:round"
       id="line2d_16">
      <path
         inkscape:connector-curvature="0"
         id="path62"
         style="fill:none;stroke:#ffffff;stroke-width:4;stroke-linecap:round;stroke-linejoin:round"
         d="m 285.822,197.375 5.496,2.729 5.4,2.927 5.276,3.117 5.013,3.216 4.85,3.37 4.66,3.505 4.539,3.695 4.289,3.778 4.095,3.905 3.861,3.991 3.654,4.098 3.39,4.133 3.218,4.277 3.054,4.434 3.078,4.874 4.012,6.384 0.171,0.217 0,0"
         clip-path="url(#p767a5060e4)" />
    </g>
    <g
       transform="translate(-174.32305,-142.28945)"
       style="stroke-linecap:butt;stroke-linejoin:round"
       id="line2d_17">
      <path
         inkscape:connector-curvature="0"
         id="path65"
         style="fill:none;stroke:#ffffff;stroke-width:4;stroke-linecap:round;stroke-linejoin:round"
         d="m 292.731,215.593 4.504,3.612 4.356,3.78 4.086,3.836 3.869,3.932 3.678,4.053 3.433,4.109 3.233,4.213 3.067,4.363 3.012,4.675 5.089,8.018 0.774,0.73 0.589,0.269 0.513,-0.009 0.522,-0.239 0.622,-0.547 0.317,-0.363 0,0"
         clip-path="url(#p767a5060e4)" />
    </g>
    <g
       transform="translate(-174.32305,-142.28945)"
       style="stroke-linecap:butt;stroke-linejoin:round"
       id="line2d_18">
      <path
         inkscape:connector-curvature="0"
         id="path68"
         style="fill:none;stroke:#ffffff;stroke-width:4;stroke-linecap:round;stroke-linejoin:round"
         d="m 290.383,234.935 3.474,4.173 3.258,4.265 3.076,4.396 3.029,4.728 4.789,7.574 0.797,0.791 0.592,0.304 0.513,0.023 0.52,-0.209 0.602,-0.497 0.817,-0.993 1.316,-2.002 3.976,-6.518 0,0"
         clip-path="url(#p767a5060e4)" />
    </g>
    <g
       transform="translate(-174.32305,-142.28945)"
       style="stroke-linecap:butt;stroke-linejoin:round"
       id="line2d_19">
      <path
         inkscape:connector-curvature="0"
         id="path71"
         style="fill:none;stroke:#ffffff;stroke-width:4;stroke-linecap:round;stroke-linejoin:round"
         d="m 279.314,250.97 3.936,6.452 1.63,2.432 0.857,0.919 0.624,0.368 0.513,0.06 0.505,-0.164 0.581,-0.437 0.77,-0.885 1.179,-1.742 8.55,-13.378 3.156,-4.238 3.392,-4.178 1.067,-1.244 0,0"
         clip-path="url(#p767a5060e4)" />
    </g>
    <g
       transform="translate(-174.32305,-142.28945)"
       style="stroke-linecap:butt;stroke-linejoin:round"
       id="line2d_20">
      <path
         inkscape:connector-curvature="0"
         id="path74"
         style="fill:none;stroke:#ffffff;stroke-width:4;stroke-linecap:round;stroke-linejoin:round"
         d="m 262.062,260.025 0.815,0.822 0.606,0.317 0.513,0.026 0.52,-0.205 0.601,-0.494 0.817,-0.989 1.293,-1.965 7.047,-11.185 3.129,-4.35 3.315,-4.22 3.494,-4.088 3.722,-4.012 3.976,-3.953 4.19,-3.846 4.362,-3.701 3.264,-2.589 0,0"
         clip-path="url(#p767a5060e4)" />
    </g>
    <g
       transform="translate(-174.32305,-142.28945)"
       style="stroke-linecap:butt;stroke-linejoin:round"
       id="line2d_21">
      <path
         inkscape:connector-curvature="0"
         id="path77"
         style="fill:none;stroke:#ffffff;stroke-width:4;stroke-linecap:round;stroke-linejoin:round"
         d="m 242.578,260.025 1.019,-1.423 2.057,-3.343 3.888,-6.256 3.077,-4.503 3.169,-4.246 3.342,-4.111 3.606,-4.081 3.815,-3.98 4.05,-3.899 4.244,-3.777 4.398,-3.618 4.612,-3.512 4.804,-3.381 4.969,-3.23 5.235,-3.134 5.36,-2.948 5.458,-2.752 0.954,-0.456 0,0"
         clip-path="url(#p767a5060e4)" />
    </g>
    <g
       transform="translate(-174.32305,-142.28945)"
       style="stroke-linecap:butt;stroke-linejoin:round"
       id="line2d_22">
      <path
         inkscape:connector-curvature="0"
         id="path80"
         style="fill:none;stroke:#ffffff;stroke-width:4;stroke-linecap:round;stroke-linejoin:round"
         d="m 225.326,250.97 3.061,-4.648 3.133,-4.353 3.26,-4.151 3.49,-4.087 3.719,-4.011 3.972,-3.952 4.186,-3.845 4.359,-3.701 4.591,-3.605 4.8,-3.481 4.984,-3.335 5.141,-3.171 5.273,-2.991 5.51,-2.867 5.599,-2.66 5.804,-2.507 5.847,-2.282 6.018,-2.108 6.018,-1.875 6.151,-1.686 4.977,-1.199 0,0"
         clip-path="url(#p767a5060e4)" />
    </g>
    <g
       transform="translate(-174.32305,-142.28945)"
       style="stroke-linecap:butt;stroke-linejoin:round"
       id="line2d_23">
      <path
         inkscape:connector-curvature="0"
         id="path83"
         style="fill:none;stroke:#ffffff;stroke-width:4;stroke-linecap:round;stroke-linejoin:round"
         d="m 214.258,234.935 3.665,-4.049 3.855,-3.929 4.073,-3.835 4.343,-3.779 4.492,-3.613 4.704,-3.498 4.892,-3.36 5.053,-3.202 5.19,-3.029 5.43,-2.911 5.525,-2.71 5.734,-2.562 5.784,-2.341 5.958,-2.172 6.12,-1.988 6.108,-1.752 6.233,-1.556 6.342,-1.352 6.437,-1.14 6.347,-0.901 6.405,-0.689 6.448,-0.473 6.474,-0.254 4.266,-0.048 0,0"
         clip-path="url(#p767a5060e4)" />
    </g>
    <g
       transform="translate(-174.32305,-142.28945)"
       style="stroke-linecap:butt;stroke-linejoin:round"
       id="line2d_24">
      <path
         inkscape:connector-curvature="0"
         id="path86"
         style="fill:none;stroke:#ffffff;stroke-width:4;stroke-linecap:round;stroke-linejoin:round"
         d="m 211.909,215.593 4.716,-3.496 4.903,-3.357 5.064,-3.199 5.2,-3.024 5.441,-2.906 5.534,-2.703 5.742,-2.556 5.792,-2.334 5.966,-2.164 5.971,-1.933 6.111,-1.748 6.235,-1.552 6.344,-1.348 6.439,-1.136 6.347,-0.896 6.407,-0.685 6.448,-0.469 6.475,-0.25 6.485,-0.03 6.48,0.189 6.457,0.409 6.419,0.625 6.366,0.839 6.461,1.077 6.371,1.292 0.971,0.217 0,0"
         clip-path="url(#p767a5060e4)" />
    </g>
    <g
       transform="translate(-174.32305,-142.28945)"
       style="stroke-linecap:butt;stroke-linejoin:round"
       id="line2d_25">
      <path
         inkscape:connector-curvature="0"
         id="path89"
         style="fill:none;stroke:#ffffff;stroke-width:4;stroke-linecap:round;stroke-linejoin:round"
         d="m 218.818,197.375 5.707,-2.582 5.759,-2.364 5.935,-2.196 6.099,-2.014 6.089,-1.778 6.216,-1.585 6.328,-1.381 6.424,-1.17 6.337,-0.931 6.397,-0.72 6.443,-0.505 6.472,-0.286 6.484,-0.066 6.482,0.153 6.462,0.373 6.427,0.589 6.375,0.804 6.474,1.043 6.387,1.258 6.284,1.465 6.165,1.665 6.033,1.855 6.035,2.088 5.866,2.265 5.825,2.49 3.315,1.53 0,0"
         clip-path="url(#p767a5060e4)" />
    </g>
    <g
       transform="translate(-174.32305,-142.28945)"
       style="stroke-linecap:butt;stroke-linejoin:round"
       id="line2d_26">
      <path
         inkscape:connector-curvature="0"
         id="path92"
         style="fill:none;stroke:#ffffff;stroke-width:4;stroke-linecap:round;stroke-linejoin:round"
         d="m 233.402,184.455 6.357,-1.324 6.448,-1.111 6.355,-0.872 6.412,-0.659 6.453,-0.443 6.477,-0.224 6.485,-0.004 6.478,0.215 6.453,0.435 6.414,0.65 6.358,0.864 6.452,1.103 6.36,1.315 6.252,1.522 6.131,1.718 6.145,1.956 5.987,2.142 5.815,2.314 5.767,2.536 5.56,2.686 5.468,2.89 5.229,3.012 5.096,3.187 4.935,3.349 4.749,3.49 0.509,0.391 0,0"
         clip-path="url(#p767a5060e4)" />
    </g>
  </g>
  <defs
     id="defs337">
    <clipPath
       id="p767a5060e4"
       style="stroke-linecap:butt;stroke-linejoin:round">
      <rect
         height="352.79999"
         width="352.79999"
         x="123.4125"
         y="44.099998"
         id="rect340"
         style="stroke-linecap:butt;stroke-linejoin:round" />
    </clipPath>
  </defs>
</svg>
